<mxfile host="app.diagrams.net" modified="2021-12-27T15:40:47.128Z" agent="5.0 (Macintosh; Intel Mac OS X 10_15_7) AppleWebKit/605.1.15 (KHTML, like Gecko) Version/15.2 Safari/605.1.15" etag="x-Iss-Rg-mFugOglbAgU" version="16.1.0" type="github" pages="2">
  <diagram id="n5NkZ25xJhLI2e8qdj20" name="Page-1">
    <mxGraphModel dx="946" dy="604" grid="1" gridSize="10" guides="1" tooltips="1" connect="1" arrows="1" fold="1" page="1" pageScale="1" pageWidth="827" pageHeight="1169" math="0" shadow="0">
      <root>
        <mxCell id="0" />
        <mxCell id="1" parent="0" />
        <mxCell id="2QHzBvZOqzuwT2A9NRxj-1" value="&lt;p style=&quot;margin: 0px ; margin-top: 4px ; text-align: center&quot;&gt;&lt;i&gt;&amp;lt;&amp;lt;Interface&amp;gt;&amp;gt;&lt;/i&gt;&lt;br&gt;&lt;b&gt;Resource&lt;/b&gt;&lt;/p&gt;&lt;hr size=&quot;1&quot;&gt;&lt;p style=&quot;margin: 0px ; margin-left: 4px&quot;&gt;+ Name(): String&lt;br&gt;+ IsAllocable(int): Bool&lt;/p&gt;&lt;p style=&quot;margin: 0px ; margin-left: 4px&quot;&gt;+ Allocate(int): error&lt;/p&gt;" style="verticalAlign=top;align=left;overflow=fill;fontSize=12;fontFamily=Helvetica;html=1;" vertex="1" parent="1">
          <mxGeometry x="250" y="100" width="190" height="140" as="geometry" />
        </mxCell>
      </root>
    </mxGraphModel>
  </diagram>
  <diagram id="L94ANR29U1awp0qePnB8" name="Page-2">
    <mxGraphModel dx="946" dy="604" grid="1" gridSize="10" guides="1" tooltips="1" connect="1" arrows="1" fold="1" page="1" pageScale="1" pageWidth="827" pageHeight="1169" math="0" shadow="0">
      <root>
        <mxCell id="ze4lTvwODBkg-IYXpiY8-0" />
        <mxCell id="ze4lTvwODBkg-IYXpiY8-1" parent="ze4lTvwODBkg-IYXpiY8-0" />
      </root>
    </mxGraphModel>
  </diagram>
</mxfile>
